<svg width="386" height="386" viewBox="0 0 386 386" fill="none" xmlns="http://www.w3.org/2000/svg">
<rect x="16" y="16" width="354" height="354" rx="84" stroke="#1378FE" stroke-width="32"/>
<rect x="47" y="177.5" width="90" height="32" rx="16" fill="#1378FE"/>
<rect x="149" y="248" width="109" height="32" rx="16" transform="rotate(-90 149 248)" fill="#1378FE"/>
<rect width="90" height="32" rx="16" transform="matrix(-1 0 0 1 339 177.5)" fill="#1378FE"/>
<rect width="109" height="32" rx="16" transform="matrix(4.37114e-08 -1 -1 -4.37114e-08 237 248)" fill="#1378FE"/>
<rect width="85" height="32" rx="16" transform="matrix(4.37114e-08 -1 -1 -4.37114e-08 209 386)" fill="#1378FE"/>
<path d="M279.796 163.5C288.193 163.5 295.115 156.656 293.874 148.352C292.642 140.103 290.404 132.016 287.198 124.275C282.047 111.839 274.496 100.54 264.978 91.0216C255.46 81.5035 244.161 73.9535 231.725 68.8023C219.289 63.6512 205.96 61 192.5 61C179.04 61 165.711 63.6512 153.275 68.8024C140.839 73.9535 129.54 81.5036 120.022 91.0216C110.504 100.54 102.953 111.839 97.8023 124.275C94.596 132.016 92.3582 140.103 91.1255 148.352C89.8846 156.656 96.807 163.5 105.204 163.5V163.5C113.601 163.5 120.247 156.619 122.005 148.408C122.918 144.144 124.218 139.96 125.895 135.912C129.518 127.165 134.829 119.217 141.523 112.523C148.217 105.829 156.165 100.518 164.912 96.8955C173.658 93.2725 183.033 91.4078 192.5 91.4078C201.967 91.4078 211.342 93.2725 220.088 96.8955C228.835 100.518 236.783 105.829 243.477 112.523C250.171 119.217 255.482 127.165 259.105 135.912C260.782 139.96 262.082 144.144 262.995 148.408C264.753 156.619 271.399 163.5 279.796 163.5V163.5Z" fill="#1378FE"/>
<path d="M279.796 220.5C288.193 220.5 295.115 227.344 293.874 235.648C292.642 243.897 290.404 251.984 287.198 259.725C282.047 272.161 274.496 283.46 264.978 292.978C255.46 302.496 244.161 310.047 231.725 315.198C219.289 320.349 205.96 323 192.5 323C179.04 323 165.711 320.349 153.275 315.198C140.839 310.047 129.54 302.496 120.022 292.978C110.504 283.46 102.953 272.161 97.8023 259.725C94.596 251.984 92.3582 243.897 91.1255 235.648C89.8846 227.344 96.807 220.5 105.204 220.5V220.5C113.601 220.5 120.247 227.381 122.005 235.592C122.918 239.856 124.218 244.04 125.895 248.088C129.518 256.835 134.829 264.783 141.523 271.477C148.217 278.171 156.165 283.482 164.912 287.105C173.658 290.727 183.033 292.592 192.5 292.592C201.967 292.592 211.342 290.727 220.088 287.105C228.835 283.482 236.783 278.171 243.477 271.477C250.171 264.783 255.482 256.835 259.105 248.088C260.782 244.04 262.082 239.856 262.995 235.592C264.753 227.381 271.399 220.5 279.796 220.5V220.5Z" fill="#1378FE"/>
</svg>
