<svg width="973" height="261" viewBox="0 0 973 261" fill="none" xmlns="http://www.w3.org/2000/svg">
<rect x="46.9984" y="46.9979" width="166.032" height="166.032" rx="39.3975" stroke="white" stroke-width="15.0086"/>
<rect x="61.5371" y="122.744" width="42.2116" height="15.0086" rx="7.50429" fill="white"/>
<rect x="109.377" y="155.81" width="51.123" height="15.0086" rx="7.50429" transform="rotate(-90 109.377 155.81)" fill="white"/>
<rect width="42.2116" height="15.0086" rx="7.50429" transform="matrix(-1 0 0 1 198.49 122.744)" fill="white"/>
<rect width="51.123" height="15.0086" rx="7.50429" transform="matrix(4.37114e-08 -1 -1 -4.37114e-08 150.65 155.81)" fill="white"/>
<rect width="39.8665" height="15.0086" rx="7.50429" transform="matrix(4.37114e-08 -1 -1 -4.37114e-08 137.52 220.535)" fill="white"/>
<path d="M170.723 116.178C174.661 116.178 177.908 112.969 177.326 109.074C176.748 105.205 175.698 101.412 174.194 97.7811C171.778 91.9485 168.237 86.6488 163.773 82.1847C159.309 77.7205 154.009 74.1794 148.177 71.7634C142.344 69.3475 136.093 68.104 129.779 68.104C123.466 68.104 117.215 69.3475 111.382 71.7634C105.55 74.1794 100.25 77.7205 95.7857 82.1847C91.3216 86.6488 87.7805 91.9485 85.3645 97.7811C83.8607 101.412 82.8111 105.205 82.233 109.074C81.6509 112.969 84.8977 116.178 88.836 116.178V116.178C92.7743 116.178 95.8916 112.951 96.7161 109.1C97.1443 107.1 97.7541 105.138 98.5407 103.239C100.24 99.1365 102.731 95.4091 105.87 92.2693C109.01 89.1295 112.738 86.6389 116.84 84.9396C120.942 83.2404 125.339 82.3658 129.779 82.3658C134.22 82.3658 138.617 83.2404 142.719 84.9396C146.821 86.6389 150.549 89.1295 153.689 92.2693C156.828 95.4091 159.319 99.1365 161.018 103.239C161.805 105.138 162.415 107.1 162.843 109.1C163.667 112.951 166.785 116.178 170.723 116.178V116.178Z" fill="white"/>
<path d="M170.723 142.912C174.661 142.912 177.908 146.122 177.326 150.017C176.748 153.886 175.698 157.679 174.194 161.309C171.778 167.142 168.237 172.442 163.773 176.906C159.309 181.37 154.009 184.911 148.177 187.327C142.344 189.743 136.093 190.987 129.779 190.987C123.466 190.987 117.215 189.743 111.382 187.327C105.55 184.911 100.25 181.37 95.7857 176.906C91.3216 172.442 87.7805 167.142 85.3645 161.309C83.8607 157.679 82.8111 153.886 82.233 150.017C81.6509 146.122 84.8977 142.912 88.836 142.912V142.912C92.7743 142.912 95.8916 146.139 96.7161 149.99C97.1443 151.991 97.7541 153.953 98.5407 155.852C100.24 159.954 102.731 163.682 105.87 166.821C109.01 169.961 112.738 172.452 116.84 174.151C120.942 175.85 125.339 176.725 129.779 176.725C134.22 176.725 138.617 175.85 142.719 174.151C146.821 172.452 150.549 169.961 153.689 166.821C156.828 163.682 159.319 159.954 161.018 155.852C161.805 153.953 162.415 151.991 162.843 149.99C163.667 146.139 166.785 142.912 170.723 142.912V142.912Z" fill="white"/>
<path d="M374.877 104.603L355.604 178.535H333.803L322.008 129.878L309.791 178.535H287.991L269.244 104.603H288.517L299.154 158.419L312.319 104.603H332.118L344.756 158.419L355.498 104.603H374.877ZM392.966 113.66C389.806 113.66 387.208 112.747 385.172 110.922C383.206 109.026 382.223 106.709 382.223 103.971C382.223 101.162 383.206 98.8452 385.172 97.0197C387.208 95.124 389.806 94.1762 392.966 94.1762C396.055 94.1762 398.582 95.124 400.548 97.0197C402.584 98.8452 403.603 101.162 403.603 103.971C403.603 106.709 402.584 109.026 400.548 110.922C398.582 112.747 396.055 113.66 392.966 113.66ZM401.917 119.768V178.535H383.908V119.768H401.917ZM450.776 119.136C457.657 119.136 463.133 121.383 467.205 125.876C471.348 130.3 473.419 136.408 473.419 144.202V178.535H455.515V146.624C455.515 142.692 454.497 139.638 452.461 137.461C450.425 135.285 447.687 134.196 444.246 134.196C440.806 134.196 438.068 135.285 436.032 137.461C433.996 139.638 432.978 142.692 432.978 146.624V178.535H414.968V119.768H432.978V127.562C434.803 124.964 437.26 122.928 440.35 121.453C443.439 119.909 446.914 119.136 450.776 119.136ZM587.669 104.603L568.396 178.535H546.596L534.8 129.878L522.584 178.535H500.783L482.037 104.603H501.31L511.947 158.419L525.111 104.603H544.911L557.549 158.419L568.291 104.603H587.669ZM632.825 119.136C639.565 119.136 644.971 121.383 649.043 125.876C653.116 130.3 655.152 136.408 655.152 144.202V178.535H637.248V146.624C637.248 142.692 636.23 139.638 634.194 137.461C632.158 135.285 629.419 134.196 625.979 134.196C622.539 134.196 619.8 135.285 617.764 137.461C615.728 139.638 614.71 142.692 614.71 146.624V178.535H596.701V100.6H614.71V127.667C616.536 125.069 619.028 122.998 622.188 121.453C625.347 119.909 628.893 119.136 632.825 119.136ZM676.723 113.66C673.564 113.66 670.966 112.747 668.93 110.922C666.964 109.026 665.981 106.709 665.981 103.971C665.981 101.162 666.964 98.8452 668.93 97.0197C670.966 95.124 673.564 94.1762 676.723 94.1762C679.813 94.1762 682.34 95.124 684.306 97.0197C686.342 98.8452 687.36 101.162 687.36 103.971C687.36 106.709 686.342 109.026 684.306 110.922C682.34 112.747 679.813 113.66 676.723 113.66ZM685.675 119.768V178.535H667.666V119.768H685.675ZM722.633 179.377C717.508 179.377 712.944 178.5 708.942 176.744C704.94 174.989 701.781 172.602 699.464 169.583C697.147 166.493 695.848 163.053 695.567 159.262H713.365C713.576 161.298 714.524 162.948 716.209 164.212C717.894 165.475 719.965 166.107 722.423 166.107C724.669 166.107 726.389 165.686 727.583 164.844C728.847 163.931 729.479 162.772 729.479 161.368C729.479 159.683 728.601 158.454 726.846 157.682C725.091 156.839 722.247 155.927 718.315 154.944C714.103 153.961 710.592 152.943 707.784 151.89C704.975 150.766 702.553 149.046 700.517 146.729C698.481 144.342 697.463 141.147 697.463 137.145C697.463 133.775 698.375 130.721 700.201 127.983C702.096 125.174 704.835 122.963 708.415 121.348C712.066 119.733 716.384 118.926 721.369 118.926C728.742 118.926 734.534 120.751 738.747 124.402C743.029 128.053 745.487 132.898 746.119 138.936H729.479C729.198 136.9 728.285 135.285 726.741 134.091C725.266 132.898 723.3 132.301 720.843 132.301C718.736 132.301 717.122 132.722 715.998 133.565C714.875 134.337 714.313 135.425 714.313 136.829C714.313 138.514 715.191 139.778 716.946 140.621C718.772 141.463 721.58 142.306 725.371 143.148C729.725 144.272 733.27 145.395 736.008 146.518C738.747 147.572 741.134 149.327 743.17 151.784C745.276 154.171 746.365 157.401 746.435 161.473C746.435 164.914 745.452 168.003 743.486 170.741C741.59 173.409 738.817 175.516 735.166 177.06C731.585 178.605 727.408 179.377 722.633 179.377ZM775.462 128.088C777.217 125.35 779.639 123.138 782.729 121.453C785.818 119.768 789.434 118.926 793.576 118.926C798.421 118.926 802.809 120.154 806.741 122.612C810.673 125.069 813.762 128.58 816.009 133.143C818.326 137.707 819.484 143.008 819.484 149.046C819.484 155.084 818.326 160.42 816.009 165.054C813.762 169.618 810.673 173.164 806.741 175.691C802.809 178.149 798.421 179.377 793.576 179.377C789.504 179.377 785.888 178.535 782.729 176.85C779.639 175.165 777.217 172.988 775.462 170.32V206.549H757.453V119.768H775.462V128.088ZM801.159 149.046C801.159 144.553 799.895 141.042 797.368 138.514C794.91 135.917 791.856 134.618 788.205 134.618C784.624 134.618 781.57 135.917 779.043 138.514C776.585 141.112 775.356 144.658 775.356 149.151C775.356 153.645 776.585 157.191 779.043 159.788C781.57 162.386 784.624 163.685 788.205 163.685C791.786 163.685 794.84 162.386 797.368 159.788C799.895 157.12 801.159 153.54 801.159 149.046ZM884.329 148.204C884.329 149.889 884.223 151.644 884.013 153.469H843.255C843.536 157.12 844.694 159.929 846.731 161.895C848.837 163.79 851.4 164.738 854.419 164.738C858.912 164.738 862.037 162.843 863.792 159.051H882.959C881.976 162.913 880.186 166.388 877.588 169.477C875.061 172.567 871.866 174.989 868.004 176.744C864.143 178.5 859.825 179.377 855.051 179.377C849.293 179.377 844.168 178.149 839.674 175.691C835.181 173.234 831.67 169.723 829.143 165.159C826.615 160.596 825.351 155.26 825.351 149.151C825.351 143.043 826.58 137.707 829.037 133.143C831.565 128.58 835.076 125.069 839.569 122.612C844.063 120.154 849.223 118.926 855.051 118.926C860.738 118.926 865.793 120.119 870.216 122.506C874.639 124.893 878.08 128.299 880.537 132.722C883.065 137.145 884.329 142.306 884.329 148.204ZM865.898 143.464C865.898 140.375 864.845 137.918 862.739 136.092C860.632 134.267 857.999 133.354 854.84 133.354C851.821 133.354 849.258 134.232 847.152 135.987C845.116 137.742 843.852 140.235 843.36 143.464H865.898ZM911.838 129.563C913.945 126.333 916.578 123.805 919.737 121.98C922.897 120.084 926.407 119.136 930.269 119.136V138.198H925.319C920.825 138.198 917.455 139.181 915.208 141.147C912.962 143.043 911.838 146.413 911.838 151.258V178.535H893.829V119.768H911.838V129.563Z" fill="white"/>
</svg>
